<?xml version="1.0" encoding="UTF-8" standalone="no"?>
<!-- Created with Inkscape (http://www.inkscape.org/) -->

<svg
   xmlns:dc="http://purl.org/dc/elements/1.1/"
   xmlns:cc="http://creativecommons.org/ns#"
   xmlns:rdf="http://www.w3.org/1999/02/22-rdf-syntax-ns#"
   xmlns:svg="http://www.w3.org/2000/svg"
   xmlns="http://www.w3.org/2000/svg"
   xmlns:sodipodi="http://sodipodi.sourceforge.net/DTD/sodipodi-0.dtd"
   xmlns:inkscape="http://www.inkscape.org/namespaces/inkscape"
   width="8.5418167mm"
   height="83.452774mm"
   viewBox="0 0 8.5418167 83.452774"
   version="1.1"
   id="svg3125"
   inkscape:version="0.92.4 (5da689c313, 2019-01-14)"
   sodipodi:docname="minute-hand.svg">
  <defs
     id="defs3119" />
  <sodipodi:namedview
     id="base"
     pagecolor="#ffffff"
     bordercolor="#666666"
     borderopacity="1.0"
     inkscape:pageopacity="0.0"
     inkscape:pageshadow="2"
     inkscape:zoom="1.4"
     inkscape:cx="82.815344"
     inkscape:cy="177.52135"
     inkscape:document-units="mm"
     inkscape:current-layer="layer1"
     showgrid="false"
     fit-margin-top="0"
     fit-margin-left="0"
     fit-margin-right="0"
     fit-margin-bottom="0"
     inkscape:window-width="1366"
     inkscape:window-height="715"
     inkscape:window-x="-8"
     inkscape:window-y="-8"
     inkscape:window-maximized="1" />
  <metadata
     id="metadata3122">
    <rdf:RDF>
      <cc:Work
         rdf:about="">
        <dc:format>image/svg+xml</dc:format>
        <dc:type
           rdf:resource="http://purl.org/dc/dcmitype/StillImage" />
        <dc:title></dc:title>
      </cc:Work>
    </rdf:RDF>
  </metadata>
  <g
     inkscape:label="Layer 1"
     inkscape:groupmode="layer"
     id="layer1"
     transform="translate(110.10424,17.625199)">
    <g
       id="g3106"
       transform="matrix(-0.32989523,0,0,-0.32989523,-23.631692,192.78115)">
      <path
         id="path30"
         d="m 246.48,475.41 h -7.01 v -2.16 h 6.58 c 1,0 1.46,-1.24 0.71,-1.89 -1.88,-1.64 -1.62,-4.63 0.51,-5.92 2.13,-1.29 4.9,-0.14 5.48,2.28 l 1.99,1.27 c -0.58,0.76 -1.31,1.46 -2.27,1.98 -1.11,0.59 -0.69,2.28 0.57,2.28 h 5.84 v 2.16 h -7.01 l -1.75,161.44 v 0.01 c -0.02,1.25 -1.87,1.25 -1.89,0 v -0.01 z"
         inkscape:connector-curvature="0" />
      <path
         id="path32"
         d="m 253.02,426.43 c -3.66,1.22 -7.26,-2.03 -6.41,-5.8 -0.07,-0.12 -0.14,-0.23 -0.23,-0.32 -0.25,-0.27 -0.6,-0.4 -1.12,-0.23 -0.52,0.17 -1.21,0.63 -1.77,1.43 -0.55,0.8 -0.96,1.93 -1.07,3.27 -0.12,1.34 0.07,2.89 0.49,4.34 0.42,1.46 1.06,2.81 1.98,3.95 0.92,1.14 2.12,2.07 3.31,2.7 1.19,0.63 2.38,0.96 3.57,1.07 1.19,0.11 2.39,0.01 3.41,-0.37 1.03,-0.39 1.89,-1.06 2.39,-1.86 0.49,-0.79 0.64,-1.72 0.57,-2.35 -0.08,-0.63 -0.36,-0.96 -0.62,-0.91 -0.25,0.04 -0.48,0.45 -0.97,0.72 -0.5,0.26 -1.25,0.37 -1.97,0.21 -0.71,-0.16 -1.38,-0.58 -1.84,-1.18 -0.45,-0.6 -0.7,-1.36 -0.67,-2.19 0.02,-0.83 0.3,-1.72 0.84,-2.35 0.04,-0.05 0.08,-0.09 0.11,-0.13 z m -9.93,27.61 c -1,0.85 -2.08,1.47 -2.96,1.78 -0.88,0.3 -1.55,0.31 -1.8,0.2 -0.24,-0.1 -0.07,-0.31 0.53,-0.7 0.59,-0.38 1.61,-0.94 2.54,-1.81 0.92,-0.87 1.75,-2.04 2.3,-3.65 0.55,-1.6 0.82,-3.64 0.64,-5.57 -0.17,-1.93 -0.79,-3.74 -1.64,-5.73 -0.84,-1.99 -1.91,-4.15 -2.66,-6.6 -0.74,-2.45 -1.16,-5.2 -0.67,-8.07 0.49,-2.88 1.9,-5.88 5.01,-7.48 h -4.91 v -1.61 h 7.01 v -4.37 C 240,409.05 235.61,403 236.3,396.42 c 0.7,-6.59 6.25,-11.59 12.88,-11.59 6.62,0 12.18,5 12.87,11.59 0.69,6.58 -3.7,12.63 -10.18,14.01 v 4.37 h 7.01 v 1.61 h -4.65 c -0.67,0 -0.85,0.67 -0.27,1.01 2.96,1.73 3.33,5.86 0.72,8.08 0.13,-0.03 0.26,-0.06 0.39,-0.08 0.83,-0.15 1.69,-0.07 2.57,0.28 0.88,0.35 1.78,0.97 2.44,1.87 0.66,0.9 1.09,2.08 1.3,3.3 0.2,1.21 0.17,2.46 -0.23,3.58 -0.41,1.13 -1.2,2.14 -2.1,2.85 -0.89,0.71 -1.9,1.13 -2.44,1.49 -0.54,0.37 -0.62,0.68 -0.5,0.87 0.11,0.19 0.42,0.25 0.91,0.31 0.49,0.06 1.17,0.12 1.57,0.28 0.4,0.16 0.53,0.41 0.34,0.65 -0.19,0.24 -0.69,0.46 -1.13,0.67 -0.45,0.22 -0.83,0.44 -0.83,0.64 0,0.2 0.38,0.39 0.88,0.73 0.49,0.34 1.08,0.83 1.71,1.57 0.62,0.73 1.27,1.7 1.7,2.77 0.43,1.07 0.65,2.24 0.73,3.04 0.09,0.79 0.05,1.22 -0.09,1.44 -0.13,0.21 -0.35,0.21 -0.52,-0.19 -0.16,-0.39 -0.27,-1.18 -0.59,-2.08 -0.31,-0.91 -0.83,-1.93 -1.44,-2.81 -0.62,-0.88 -1.34,-1.62 -2.03,-2.2 -0.7,-0.58 -1.38,-1 -2.04,-1.09 -0.66,-0.08 -1.29,0.16 -1.61,0.72 -0.32,0.56 -0.33,1.45 0.1,2.62 0.43,1.16 1.3,2.6 1.99,4.33 0.68,1.73 1.17,3.75 1.4,5.85 0.24,2.09 0.23,4.26 -0.01,6.04 -0.24,1.78 -0.69,3.17 -1.51,4.64 -0.26,0.47 -0.55,0.94 -0.9,1.4 l -1.99,-1.27 c 1.91,-2.16 1.98,-5.54 1.82,-8.11 -0.15,-2.57 -0.52,-4.34 -1.19,-6.16 -0.66,-1.83 -1.63,-3.71 -2.52,-5.2 -0.9,-1.49 -1.72,-2.58 -2.3,-3.15 -0.58,-0.58 -0.91,-0.64 -1.17,-0.45 -0.25,0.18 -0.44,0.6 -0.68,1.69 -0.24,1.1 -0.53,2.88 -1.13,4.32 -0.59,1.43 -1.5,2.53 -2.49,3.38 z m 10.13,-53.57 v -5.4 h -8.09 v 5.4 z"
         inkscape:connector-curvature="0" />
    </g>
  </g>
</svg>
